<mxfile host="65bd71144e">
    <diagram id="ayLVaH0twAeTrFX0j36s" name="PÃ¡gina-1">
        <mxGraphModel dx="2964" dy="403" grid="0" gridSize="10" guides="1" tooltips="1" connect="1" arrows="1" fold="1" page="0" pageScale="1" pageWidth="827" pageHeight="1169" background="none" math="0" shadow="0">
            <root>
                <mxCell id="0"/>
                <mxCell id="1" parent="0"/>
                <mxCell id="128" value="" style="edgeStyle=none;html=1;fontSize=36;entryX=0.5;entryY=0;entryDx=0;entryDy=0;" parent="1" source="129" target="136" edge="1">
                    <mxGeometry relative="1" as="geometry"/>
                </mxCell>
                <mxCell id="129" value="&lt;font size=&quot;3&quot;&gt;Inicio&lt;/font&gt;" style="ellipse;whiteSpace=wrap;html=1;" parent="1" vertex="1">
                    <mxGeometry x="115" y="1183" width="80" height="80" as="geometry"/>
                </mxCell>
                <mxCell id="130" style="edgeStyle=none;html=1;exitX=0;exitY=1;exitDx=0;exitDy=0;fontSize=18;entryX=1;entryY=0;entryDx=0;entryDy=0;" parent="1" source="134" target="138" edge="1">
                    <mxGeometry relative="1" as="geometry">
                        <mxPoint x="4.264705882352928" y="1606.8823529411766" as="targetPoint"/>
                        <mxPoint x="51.49999999999977" y="1548" as="sourcePoint"/>
                    </mxGeometry>
                </mxCell>
                <mxCell id="131" value="si" style="edgeLabel;html=1;align=center;verticalAlign=middle;resizable=0;points=[];fontSize=18;" parent="130" vertex="1" connectable="0">
                    <mxGeometry x="-0.3741" y="4" relative="1" as="geometry">
                        <mxPoint x="-16" y="-7" as="offset"/>
                    </mxGeometry>
                </mxCell>
                <mxCell id="132" style="edgeStyle=none;html=1;exitX=1;exitY=1;exitDx=0;exitDy=0;fontSize=18;" parent="1" source="134" edge="1">
                    <mxGeometry relative="1" as="geometry">
                        <mxPoint x="900" y="1651" as="targetPoint"/>
                    </mxGeometry>
                </mxCell>
                <mxCell id="133" value="no" style="edgeLabel;html=1;align=center;verticalAlign=middle;resizable=0;points=[];fontSize=18;" parent="132" vertex="1" connectable="0">
                    <mxGeometry x="0.2478" y="3" relative="1" as="geometry">
                        <mxPoint x="-41" y="-38" as="offset"/>
                    </mxGeometry>
                </mxCell>
                <mxCell id="134" value="&lt;font style=&quot;font-size: 18px;&quot;&gt;Registro&lt;/font&gt;" style="rhombus;whiteSpace=wrap;html=1;" parent="1" vertex="1">
                    <mxGeometry x="115" y="1468" width="80" height="80" as="geometry"/>
                </mxCell>
                <mxCell id="135" style="edgeStyle=none;html=1;exitX=0.5;exitY=1;exitDx=0;exitDy=0;fontSize=18;" parent="1" source="136" edge="1">
                    <mxGeometry relative="1" as="geometry">
                        <mxPoint x="154.82352941176487" y="1465.1764705882356" as="targetPoint"/>
                    </mxGeometry>
                </mxCell>
                <mxCell id="136" value="pagina web" style="ellipse;whiteSpace=wrap;html=1;fontSize=18;" parent="1" vertex="1">
                    <mxGeometry x="115" y="1321" width="80" height="80" as="geometry"/>
                </mxCell>
                <mxCell id="137" value="" style="edgeStyle=none;html=1;fontSize=18;" parent="1" source="138" target="142" edge="1">
                    <mxGeometry relative="1" as="geometry"/>
                </mxCell>
                <mxCell id="138" value="ad= administrador&lt;br&gt;Cli=usuario&lt;br&gt;bs= base de datos" style="whiteSpace=wrap;html=1;fontSize=18;" parent="1" vertex="1">
                    <mxGeometry x="-508.5" y="1615" width="153" height="60" as="geometry"/>
                </mxCell>
                <mxCell id="139" style="edgeStyle=none;html=1;exitX=1;exitY=0.5;exitDx=0;exitDy=0;fontSize=18;entryX=0;entryY=0.25;entryDx=0;entryDy=0;" parent="1" source="142" target="144" edge="1">
                    <mxGeometry relative="1" as="geometry">
                        <mxPoint x="-282.5" y="1764" as="targetPoint"/>
                    </mxGeometry>
                </mxCell>
                <mxCell id="140" value="si" style="edgeLabel;html=1;align=center;verticalAlign=middle;resizable=0;points=[];fontSize=18;" parent="139" vertex="1" connectable="0">
                    <mxGeometry x="-0.4379" y="1" relative="1" as="geometry">
                        <mxPoint x="13" y="-13" as="offset"/>
                    </mxGeometry>
                </mxCell>
                <mxCell id="141" value="no" style="edgeStyle=none;html=1;fontSize=18;exitX=0.5;exitY=1;exitDx=0;exitDy=0;" parent="1" source="142" target="149" edge="1">
                    <mxGeometry relative="1" as="geometry">
                        <mxPoint x="-434.5" y="1810" as="sourcePoint"/>
                    </mxGeometry>
                </mxCell>
                <mxCell id="142" value="ad=bs" style="rhombus;whiteSpace=wrap;html=1;fontSize=18;" parent="1" vertex="1">
                    <mxGeometry x="-472" y="1724" width="80" height="80" as="geometry"/>
                </mxCell>
                <mxCell id="238" style="edgeStyle=none;html=1;fontSize=18;" parent="1" edge="1" target="252">
                    <mxGeometry relative="1" as="geometry">
                        <mxPoint x="468" y="2389" as="targetPoint"/>
                        <mxPoint x="-88" y="1760" as="sourcePoint"/>
                        <Array as="points">
                            <mxPoint x="445" y="1764"/>
                        </Array>
                    </mxGeometry>
                </mxCell>
                <mxCell id="144" value="Pagina administrador" style="whiteSpace=wrap;html=1;fontSize=18;" parent="1" vertex="1">
                    <mxGeometry x="-211" y="1747" width="120" height="60" as="geometry"/>
                </mxCell>
                <mxCell id="145" value="" style="edgeStyle=none;html=1;fontSize=18;" parent="1" source="149" target="151" edge="1">
                    <mxGeometry relative="1" as="geometry"/>
                </mxCell>
                <mxCell id="146" value="si" style="edgeLabel;html=1;align=center;verticalAlign=middle;resizable=0;points=[];fontSize=18;" parent="145" vertex="1" connectable="0">
                    <mxGeometry x="-0.3836" relative="1" as="geometry">
                        <mxPoint x="1" y="-15" as="offset"/>
                    </mxGeometry>
                </mxCell>
                <mxCell id="147" style="edgeStyle=none;html=1;exitX=0.5;exitY=1;exitDx=0;exitDy=0;fontSize=18;entryX=0.5;entryY=0;entryDx=0;entryDy=0;" parent="1" source="149" target="154" edge="1">
                    <mxGeometry relative="1" as="geometry">
                        <mxPoint x="-675" y="2495" as="targetPoint"/>
                    </mxGeometry>
                </mxCell>
                <mxCell id="148" value="no" style="edgeLabel;html=1;align=center;verticalAlign=middle;resizable=0;points=[];fontSize=18;" parent="147" vertex="1" connectable="0">
                    <mxGeometry x="0.4213" relative="1" as="geometry">
                        <mxPoint x="-14" y="-29" as="offset"/>
                    </mxGeometry>
                </mxCell>
                <mxCell id="149" value="Cli=bs" style="rhombus;whiteSpace=wrap;html=1;fontSize=18;" parent="1" vertex="1">
                    <mxGeometry x="-472" y="2344" width="80" height="80" as="geometry"/>
                </mxCell>
                <mxCell id="150" value="" style="edgeStyle=none;html=1;fontSize=18;entryX=0.004;entryY=0.396;entryDx=0;entryDy=0;entryPerimeter=0;" parent="1" source="151" target="161" edge="1">
                    <mxGeometry relative="1" as="geometry"/>
                </mxCell>
                <mxCell id="151" value="Cliente registrado" style="whiteSpace=wrap;html=1;fontSize=18;" parent="1" vertex="1">
                    <mxGeometry x="-305" y="2357" width="120" height="60" as="geometry"/>
                </mxCell>
                <mxCell id="152" value="" style="edgeStyle=none;html=1;fontSize=18;" parent="1" source="154" target="156" edge="1">
                    <mxGeometry relative="1" as="geometry"/>
                </mxCell>
                <mxCell id="153" value="" style="edgeStyle=none;html=1;fontSize=18;" parent="1" source="154" target="252" edge="1">
                    <mxGeometry relative="1" as="geometry">
                        <Array as="points">
                            <mxPoint x="-435" y="2785"/>
                            <mxPoint x="623" y="2780"/>
                        </Array>
                    </mxGeometry>
                </mxCell>
                <mxCell id="154" value="Cli != bs&lt;br&gt;ad != bs" style="rhombus;whiteSpace=wrap;html=1;fontSize=18;" parent="1" vertex="1">
                    <mxGeometry x="-486.5" y="2541" width="109" height="107" as="geometry"/>
                </mxCell>
                <mxCell id="155" style="edgeStyle=none;html=1;exitX=1;exitY=0.5;exitDx=0;exitDy=0;fontSize=18;" parent="1" source="156" edge="1" target="252">
                    <mxGeometry relative="1" as="geometry">
                        <mxPoint x="618" y="2595" as="targetPoint"/>
                        <Array as="points">
                            <mxPoint x="574" y="2583"/>
                        </Array>
                    </mxGeometry>
                </mxCell>
                <mxCell id="156" value="Acceso denegado" style="whiteSpace=wrap;html=1;fontSize=18;" parent="1" vertex="1">
                    <mxGeometry x="-228" y="2564.5" width="120" height="60" as="geometry"/>
                </mxCell>
                <mxCell id="157" value="si" style="text;html=1;align=center;verticalAlign=middle;resizable=0;points=[];autosize=1;strokeColor=none;fillColor=none;fontSize=18;" parent="1" vertex="1">
                    <mxGeometry x="-332" y="2558" width="31" height="34" as="geometry"/>
                </mxCell>
                <mxCell id="160" style="edgeStyle=none;html=1;fontSize=18;" parent="1" source="161" edge="1" target="252">
                    <mxGeometry relative="1" as="geometry">
                        <mxPoint x="475" y="2775" as="targetPoint"/>
                        <Array as="points">
                            <mxPoint x="471" y="2392"/>
                        </Array>
                    </mxGeometry>
                </mxCell>
                <mxCell id="161" value="- Pagina del centro&lt;br&gt;- Pagina Clases y entrenamiento&lt;br&gt;- Pagina de contacto&lt;br&gt;-Consultar datos propios&lt;br&gt;- Modificar datos&lt;br&gt;- Consultar clases y entrenamiento&lt;br&gt;- Borrar cuenta" style="whiteSpace=wrap;html=1;fontSize=18;" parent="1" vertex="1">
                    <mxGeometry x="-17.319999999999993" y="2321" width="358.5" height="164" as="geometry"/>
                </mxCell>
                <mxCell id="162" value="Fin" style="ellipse;whiteSpace=wrap;html=1;fontSize=18;" parent="1" vertex="1">
                    <mxGeometry x="1013" y="2722" width="95" height="95" as="geometry"/>
                </mxCell>
                <mxCell id="163" style="edgeStyle=none;html=1;exitX=0.5;exitY=1;exitDx=0;exitDy=0;entryX=0.728;entryY=0.033;entryDx=0;entryDy=0;fontSize=18;entryPerimeter=0;" parent="1" source="164" target="173" edge="1">
                    <mxGeometry relative="1" as="geometry"/>
                </mxCell>
                <mxCell id="177" style="edgeStyle=none;html=1;entryX=0.5;entryY=0;entryDx=0;entryDy=0;fontSize=18;" parent="1" source="164" target="172" edge="1">
                    <mxGeometry relative="1" as="geometry"/>
                </mxCell>
                <mxCell id="178" style="edgeStyle=none;html=1;fontSize=18;" parent="1" edge="1">
                    <mxGeometry relative="1" as="geometry">
                        <mxPoint x="1067.090997869318" y="1817.8182373046873" as="targetPoint"/>
                        <mxPoint x="962" y="1691" as="sourcePoint"/>
                    </mxGeometry>
                </mxCell>
                <mxCell id="179" style="edgeStyle=none;html=1;entryX=0;entryY=0;entryDx=0;entryDy=0;fontSize=18;exitX=0.5;exitY=1;exitDx=0;exitDy=0;" parent="1" source="164" target="175" edge="1">
                    <mxGeometry relative="1" as="geometry"/>
                </mxCell>
                <mxCell id="180" style="edgeStyle=none;html=1;fontSize=18;exitX=0.5;exitY=1;exitDx=0;exitDy=0;" parent="1" source="164" target="176" edge="1">
                    <mxGeometry relative="1" as="geometry"/>
                </mxCell>
                <mxCell id="164" value="Cliente sin registro" style="whiteSpace=wrap;html=1;fontSize=18;" parent="1" vertex="1">
                    <mxGeometry x="902.25" y="1625" width="120" height="60" as="geometry"/>
                </mxCell>
                <mxCell id="165" value="" style="edgeStyle=none;html=1;fontSize=18;exitX=0.5;exitY=1;exitDx=0;exitDy=0;entryX=0.026;entryY=0.326;entryDx=0;entryDy=0;entryPerimeter=0;" parent="1" source="173" target="240" edge="1">
                    <mxGeometry relative="1" as="geometry">
                        <mxPoint x="1052.5750951814398" y="1946.0000000000005" as="sourcePoint"/>
                    </mxGeometry>
                </mxCell>
                <mxCell id="181" style="edgeStyle=none;html=1;fontSize=18;entryX=0;entryY=0;entryDx=0;entryDy=0;" parent="1" source="172" target="240" edge="1">
                    <mxGeometry relative="1" as="geometry"/>
                </mxCell>
                <mxCell id="172" value="&lt;font style=&quot;font-size: 18px;&quot;&gt;PÃ¡gina centro&lt;/font&gt;" style="ellipse;whiteSpace=wrap;html=1;" parent="1" vertex="1">
                    <mxGeometry x="907.6800000000001" y="1818.92" width="99.32" height="96" as="geometry"/>
                </mxCell>
                <mxCell id="173" value="&lt;font style=&quot;font-size: 18px;&quot;&gt;Iniciar sesiÃ³n&lt;/font&gt;" style="ellipse;whiteSpace=wrap;html=1;" parent="1" vertex="1">
                    <mxGeometry x="779" y="1822" width="100" height="94.92" as="geometry"/>
                </mxCell>
                <mxCell id="174" value="&lt;font style=&quot;font-size: 18px;&quot;&gt;PÃ¡gina clases y entrenaiento&lt;/font&gt;" style="ellipse;whiteSpace=wrap;html=1;" parent="1" vertex="1">
                    <mxGeometry x="1023.6800000000001" y="1817.92" width="100.32" height="98" as="geometry"/>
                </mxCell>
                <mxCell id="183" style="edgeStyle=none;html=1;fontSize=18;" parent="1" source="175" target="240" edge="1">
                    <mxGeometry relative="1" as="geometry"/>
                </mxCell>
                <mxCell id="175" value="&lt;font style=&quot;font-size: 18px;&quot;&gt;PÃ¡gina contacto&lt;/font&gt;" style="ellipse;whiteSpace=wrap;html=1;" parent="1" vertex="1">
                    <mxGeometry x="1145.68" y="1818.92" width="100.32" height="99" as="geometry"/>
                </mxCell>
                <mxCell id="184" style="edgeStyle=none;html=1;fontSize=18;entryX=1;entryY=0;entryDx=0;entryDy=0;" parent="1" source="176" target="240" edge="1">
                    <mxGeometry relative="1" as="geometry"/>
                </mxCell>
                <mxCell id="176" value="&lt;font style=&quot;font-size: 18px;&quot;&gt;Crear cuenta&lt;/font&gt;" style="ellipse;whiteSpace=wrap;html=1;" parent="1" vertex="1">
                    <mxGeometry x="1268" y="1813" width="105" height="102.92" as="geometry"/>
                </mxCell>
                <mxCell id="190" style="edgeStyle=none;html=1;entryX=0.728;entryY=0.033;entryDx=0;entryDy=0;fontSize=18;entryPerimeter=0;exitX=0.75;exitY=1;exitDx=0;exitDy=0;" parent="1" source="144" target="199" edge="1">
                    <mxGeometry relative="1" as="geometry">
                        <mxPoint x="-381" y="1825" as="sourcePoint"/>
                    </mxGeometry>
                </mxCell>
                <mxCell id="191" style="edgeStyle=none;html=1;entryX=0.5;entryY=0;entryDx=0;entryDy=0;fontSize=18;exitX=0.75;exitY=1;exitDx=0;exitDy=0;" parent="1" source="144" target="198" edge="1">
                    <mxGeometry relative="1" as="geometry">
                        <mxPoint x="-381" y="1828" as="sourcePoint"/>
                    </mxGeometry>
                </mxCell>
                <mxCell id="192" style="edgeStyle=none;html=1;fontSize=18;exitX=0.75;exitY=1;exitDx=0;exitDy=0;" parent="1" source="144" edge="1">
                    <mxGeometry relative="1" as="geometry">
                        <mxPoint x="-95.90900213068198" y="1930.8182373046873" as="targetPoint"/>
                        <mxPoint x="-201.00000000000045" y="1803.9999999999998" as="sourcePoint"/>
                    </mxGeometry>
                </mxCell>
                <mxCell id="193" style="edgeStyle=none;html=1;entryX=0;entryY=0;entryDx=0;entryDy=0;fontSize=18;exitX=0.75;exitY=1;exitDx=0;exitDy=0;" parent="1" source="144" target="203" edge="1">
                    <mxGeometry relative="1" as="geometry">
                        <mxPoint x="-378" y="1825" as="sourcePoint"/>
                    </mxGeometry>
                </mxCell>
                <mxCell id="195" value="" style="edgeStyle=none;html=1;fontSize=18;exitX=0.5;exitY=1;exitDx=0;exitDy=0;entryX=0;entryY=0.5;entryDx=0;entryDy=0;" parent="1" source="199" target="244" edge="1">
                    <mxGeometry relative="1" as="geometry">
                        <mxPoint x="-110.42490481856021" y="2059.0000000000005" as="sourcePoint"/>
                        <mxPoint x="-194" y="2123" as="targetPoint"/>
                        <Array as="points">
                            <mxPoint x="-328" y="2123"/>
                        </Array>
                    </mxGeometry>
                </mxCell>
                <mxCell id="197" style="edgeStyle=none;html=1;fontSize=18;entryX=0;entryY=0;entryDx=0;entryDy=0;" parent="1" source="198" target="244" edge="1">
                    <mxGeometry relative="1" as="geometry">
                        <mxPoint x="-85" y="2123" as="targetPoint"/>
                        <Array as="points">
                            <mxPoint x="-197" y="2123"/>
                        </Array>
                    </mxGeometry>
                </mxCell>
                <mxCell id="198" value="&lt;font style=&quot;font-size: 18px;&quot;&gt;Modificar datos&lt;/font&gt;" style="ellipse;whiteSpace=wrap;html=1;" parent="1" vertex="1">
                    <mxGeometry x="-255.31999999999994" y="1931.92" width="99.32" height="96" as="geometry"/>
                </mxCell>
                <mxCell id="199" value="&lt;font style=&quot;font-size: 18px;&quot;&gt;Registar&lt;/font&gt;" style="ellipse;whiteSpace=wrap;html=1;" parent="1" vertex="1">
                    <mxGeometry x="-384" y="1935" width="100" height="94.92" as="geometry"/>
                </mxCell>
                <mxCell id="245" style="edgeStyle=none;html=1;entryX=0.5;entryY=0;entryDx=0;entryDy=0;fontSize=18;startArrow=none;startFill=0;endArrow=classic;endFill=1;" parent="1" source="201" target="244" edge="1">
                    <mxGeometry relative="1" as="geometry"/>
                </mxCell>
                <mxCell id="201" value="&lt;font style=&quot;font-size: 18px;&quot;&gt;Borrar Datos&lt;/font&gt;" style="ellipse;whiteSpace=wrap;html=1;" parent="1" vertex="1">
                    <mxGeometry x="-139.31999999999994" y="1930.92" width="100.32" height="98" as="geometry"/>
                </mxCell>
                <mxCell id="246" style="edgeStyle=none;html=1;entryX=1;entryY=0;entryDx=0;entryDy=0;fontSize=18;startArrow=none;startFill=0;endArrow=classic;endFill=1;" parent="1" source="203" target="244" edge="1">
                    <mxGeometry relative="1" as="geometry"/>
                </mxCell>
                <mxCell id="203" value="&lt;span style=&quot;font-size: 18px;&quot;&gt;Consultar datos&lt;/span&gt;" style="ellipse;whiteSpace=wrap;html=1;" parent="1" vertex="1">
                    <mxGeometry x="-17.319999999999936" y="1931.92" width="100.32" height="99" as="geometry"/>
                </mxCell>
                <mxCell id="241" value="" style="edgeStyle=none;html=1;fontSize=18;endArrow=classic;startArrow=none;startFill=0;endFill=1;entryX=0.5;entryY=0;entryDx=0;entryDy=0;" parent="1" source="174" target="240" edge="1">
                    <mxGeometry relative="1" as="geometry">
                        <mxPoint x="1071.6260792130383" y="1915.8722485117137" as="sourcePoint"/>
                        <mxPoint x="1074" y="2115" as="targetPoint"/>
                    </mxGeometry>
                </mxCell>
                <mxCell id="242" style="edgeStyle=none;html=1;entryX=1;entryY=0.5;entryDx=0;entryDy=0;startArrow=none;startFill=0;endArrow=classic;endFill=1;" parent="1" source="240" target="136" edge="1">
                    <mxGeometry relative="1" as="geometry">
                        <Array as="points">
                            <mxPoint x="1529" y="2139"/>
                            <mxPoint x="1529" y="1361"/>
                        </Array>
                    </mxGeometry>
                </mxCell>
                <mxCell id="240" value="&lt;font style=&quot;font-size: 18px;&quot;&gt;Cambio de pagina&lt;/font&gt;" style="ellipse;whiteSpace=wrap;html=1;" parent="1" vertex="1">
                    <mxGeometry x="1033.84" y="2123" width="91.16" height="90" as="geometry"/>
                </mxCell>
                <mxCell id="247" style="edgeStyle=none;html=1;entryX=1;entryY=0.5;entryDx=0;entryDy=0;fontSize=18;startArrow=none;startFill=0;endArrow=classic;endFill=1;" parent="1" source="244" target="144" edge="1">
                    <mxGeometry relative="1" as="geometry">
                        <Array as="points">
                            <mxPoint x="232" y="2211"/>
                            <mxPoint x="232" y="1781"/>
                        </Array>
                    </mxGeometry>
                </mxCell>
                <mxCell id="244" value="Cambio de pagina" style="ellipse;whiteSpace=wrap;html=1;fontSize=18;" parent="1" vertex="1">
                    <mxGeometry x="-176" y="2183" width="108" height="111" as="geometry"/>
                </mxCell>
                <mxCell id="248" value="&lt;span style=&quot;font-size: 18px;&quot;&gt;Salir de pÃ¡gina&lt;/span&gt;" style="ellipse;whiteSpace=wrap;html=1;" vertex="1" parent="1">
                    <mxGeometry x="659" y="1823" width="100" height="94.92" as="geometry"/>
                </mxCell>
                <mxCell id="249" value="" style="endArrow=classic;html=1;" edge="1" parent="1" source="164" target="248">
                    <mxGeometry width="50" height="50" relative="1" as="geometry">
                        <mxPoint x="696" y="1768" as="sourcePoint"/>
                        <mxPoint x="746" y="1718" as="targetPoint"/>
                    </mxGeometry>
                </mxCell>
                <mxCell id="250" value="" style="endArrow=classic;html=1;" edge="1" parent="1" source="248" target="162">
                    <mxGeometry width="50" height="50" relative="1" as="geometry">
                        <mxPoint x="768.7452202170734" y="2074" as="sourcePoint"/>
                        <mxPoint x="588.0019587560564" y="2227.8031971045375" as="targetPoint"/>
                    </mxGeometry>
                </mxCell>
                <mxCell id="252" value="&lt;span style=&quot;font-size: 18px;&quot;&gt;Salir de pÃ¡gina&lt;/span&gt;" style="ellipse;whiteSpace=wrap;html=1;" vertex="1" parent="1">
                    <mxGeometry x="574" y="2322.08" width="100" height="94.92" as="geometry"/>
                </mxCell>
                <mxCell id="253" value="" style="endArrow=classic;html=1;" edge="1" parent="1" source="252" target="162">
                    <mxGeometry width="50" height="50" relative="1" as="geometry">
                        <mxPoint x="666.0012615613306" y="2016.003046028072" as="sourcePoint"/>
                        <mxPoint x="982.8244396514739" y="2826.3029095346874" as="targetPoint"/>
                    </mxGeometry>
                </mxCell>
            </root>
        </mxGraphModel>
    </diagram>
</mxfile>